<svg width="1280" height="720" viewBox="0 0 1280 720" xmlns="http://www.w3.org/2000/svg">
  <defs>
    <linearGradient id="bg" x1="0%" y1="0%" x2="100%" y2="100%">
      <stop offset="0%" style="stop-color:#0f172a;stop-opacity:1" />
      <stop offset="100%" style="stop-color:#1e293b;stop-opacity:1" />
    </linearGradient>
    <filter id="shadow">
      <feDropShadow dx="0" dy="4" stdDeviation="8" flood-color="#000" flood-opacity="0.3"/>
    </filter>
  </defs>
  <rect width="1280" height="720" fill="url(#bg)"/>
  
  <!-- Browser Window -->
  <rect x="100" y="50" width="1080" height="620" fill="#ffffff" rx="8" filter="url(#shadow)"/>
  
  <!-- Browser Header -->
  <rect x="100" y="50" width="1080" height="40" fill="#f8fafc" rx="8"/>
  <circle cx="125" cy="70" r="6" fill="#ef4444"/>
  <circle cx="145" cy="70" r="6" fill="#f59e0b"/>
  <circle cx="165" cy="70" r="6" fill="#10b981"/>
  
  <!-- URL Bar -->
  <rect x="200" y="60" width="600" height="20" fill="#e2e8f0" rx="10"/>
  <text x="220" y="73" font-family="monospace" font-size="12" fill="#475569">astronova.dev</text>
  
  <!-- Content Area -->
  <rect x="120" y="110" width="1040" height="540" fill="#fafafa"/>
  
  <!-- Article Header -->
  <rect x="140" y="130" width="800" height="24" fill="#1e293b" rx="4"/>
  <rect x="140" y="170" width="600" height="16" fill="#64748b" rx="3"/>
  <rect x="140" y="195" width="500" height="16" fill="#64748b" rx="3"/>
  
  <!-- Article Content -->
  <rect x="140" y="240" width="1000" height="12" fill="#475569" rx="2"/>
  <rect x="140" y="260" width="980" height="12" fill="#475569" rx="2"/>
  <rect x="140" y="280" width="990" height="12" fill="#475569" rx="2"/>
  
  <rect x="140" y="320" width="1000" height="12" fill="#475569" rx="2"/>
  <rect x="140" y="340" width="970" height="12" fill="#475569" rx="2"/>
  <rect x="140" y="360" width="985" height="12" fill="#475569" rx="2"/>
  
  <!-- Code Block -->
  <rect x="140" y="400" width="1000" height="120" fill="#1e293b" rx="4"/>
  <rect x="160" y="420" width="200" height="12" fill="#10b981" rx="2"/>
  <rect x="160" y="440" width="300" height="12" fill="#3b82f6" rx="2"/>
  <rect x="160" y="460" width="250" height="12" fill="#f59e0b" rx="2"/>
  
  <!-- Sidebar -->
  <rect x="1160" y="110" width="200" height="540" fill="#f8fafc"/>
  <rect x="1180" y="130" width="160" height="20" fill="#1e293b" rx="3"/>
  <rect x="1180" y="160" width="140" height="12" fill="#64748b" rx="2"/>
  <rect x="1180" y="180" width="150" height="12" fill="#64748b" rx="2"/>
  <rect x="1180" y="200" width="135" height="12" fill="#64748b" rx="2"/>
</svg>