<svg width="390" height="844" viewBox="0 0 390 844" xmlns="http://www.w3.org/2000/svg">
  <defs>
    <linearGradient id="bg" x1="0%" y1="0%" x2="100%" y2="100%">
      <stop offset="0%" style="stop-color:#0f172a;stop-opacity:1" />
      <stop offset="100%" style="stop-color:#1e293b;stop-opacity:1" />
    </linearGradient>
    <filter id="shadow">
      <feDropShadow dx="0" dy="4" stdDeviation="8" flood-color="#000" flood-opacity="0.3"/>
    </filter>
  </defs>
  <rect width="390" height="844" fill="url(#bg)"/>
  
  <!-- Mobile Browser -->
  <rect x="20" y="60" width="350" height="724" fill="#ffffff" rx="20" filter="url(#shadow)"/>
  
  <!-- Status Bar -->
  <rect x="20" y="60" width="350" height="44" fill="#f8fafc" rx="20"/>
  <rect x="40" y="80" width="120" height="12" fill="#e2e8f0" rx="6"/>
  
  <!-- URL Bar -->
  <rect x="40" y="120" width="310" height="28" fill="#e2e8f0" rx="14"/>
  <text x="55" y="137" font-family="monospace" font-size="10" fill="#475569">astronova.dev</text>
  
  <!-- Content Area -->
  <rect x="30" y="170" width="330" height="594" fill="#fafafa"/>
  
  <!-- Article Header -->
  <rect x="40" y="190" width="310" height="20" fill="#1e293b" rx="3"/>
  <rect x="40" y="220" width="250" height="12" fill="#64748b" rx="2"/>
  <rect x="40" y="238" width="200" height="12" fill="#64748b" rx="2"/>
  
  <!-- Article Content -->
  <rect x="40" y="270" width="310" height="10" fill="#475569" rx="2"/>
  <rect x="40" y="285" width="300" height="10" fill="#475569" rx="2"/>
  <rect x="40" y="300" width="305" height="10" fill="#475569" rx="2"/>
  
  <rect x="40" y="325" width="310" height="10" fill="#475569" rx="2"/>
  <rect x="40" y="340" width="295" height="10" fill="#475569" rx="2"/>
  <rect x="40" y="355" width="302" height="10" fill="#475569" rx="2"/>
  
  <!-- Code Block -->
  <rect x="40" y="385" width="310" height="80" fill="#1e293b" rx="4"/>
  <rect x="50" y="400" width="120" height="8" fill="#10b981" rx="1"/>
  <rect x="50" y="415" width="180" height="8" fill="#3b82f6" rx="1"/>
  <rect x="50" y="430" width="150" height="8" fill="#f59e0b" rx="1"/>
  
  <!-- Tags -->
  <rect x="40" y="485" width="60" height="20" fill="#e2e8f0" rx="10"/>
  <text x="70" y="497" font-size="10" fill="#475569" text-anchor="middle">Astro</text>
  
  <rect x="110" y="485" width="70" height="20" fill="#e2e8f0" rx="10"/>
  <text x="145" y="497" font-size="10" fill="#475569" text-anchor="middle">PWA</text>
  
  <rect x="190" y="485" width="80" height="20" fill="#e2e8f0" rx="10"/>
  <text x="230" y="497" font-size="10" fill="#475569" text-anchor="middle">Performance</text>
</svg>